<svg width="16" height="16" viewBox="0 0 16 16" fill="none" xmlns="http://www.w3.org/2000/svg">
<path d="M9.6425 9.6425L3.5 12.5L6.3575 6.3575L12.5 3.5L9.6425 9.6425ZM8 0.5C7.01509 0.5 6.03982 0.693993 5.12987 1.0709C4.21993 1.44781 3.39314 2.00026 2.6967 2.6967C1.29018 4.10322 0.5 6.01088 0.5 8C0.5 9.98912 1.29018 11.8968 2.6967 13.3033C3.39314 13.9997 4.21993 14.5522 5.12987 14.9291C6.03982 15.306 7.01509 15.5 8 15.5C9.98912 15.5 11.8968 14.7098 13.3033 13.3033C14.7098 11.8968 15.5 9.98912 15.5 8C15.5 7.01509 15.306 6.03982 14.9291 5.12987C14.5522 4.21993 13.9997 3.39314 13.3033 2.6967C12.6069 2.00026 11.7801 1.44781 10.8701 1.0709C9.96018 0.693993 8.98491 0.5 8 0.5ZM8 7.175C7.7812 7.175 7.57135 7.26192 7.41664 7.41664C7.26192 7.57135 7.175 7.7812 7.175 8C7.175 8.2188 7.26192 8.42865 7.41664 8.58336C7.57135 8.73808 7.7812 8.825 8 8.825C8.2188 8.825 8.42865 8.73808 8.58336 8.58336C8.73808 8.42865 8.825 8.2188 8.825 8C8.825 7.7812 8.73808 7.57135 8.58336 7.41664C8.42865 7.26192 8.2188 7.175 8 7.175Z" fill="white"/>
</svg>
