<svg width="11" height="17" viewBox="0 0 11 17" fill="none" xmlns="http://www.w3.org/2000/svg">
<path d="M6.59 7.5H10.25V6.15H7.535L6.035 3.6525C5.81 3.2775 5.405 3.0225 4.94 3.0225C4.805 3.0225 4.685 3.045 4.565 3.0825L0.5 4.35V8.25H1.85V5.4975L3.4325 5.0025L0.5 16.5H1.85L4.0025 10.4175L5.75 12.75V16.5H7.1V11.6925L5.2325 8.2875L5.78 6.135L6.59 7.5ZM6.5 2.85C7.25 2.85 7.85 2.25 7.85 1.5C7.85 0.750001 7.25 0.150002 6.5 0.150002C5.75 0.150002 5.15 0.750001 5.15 1.5C5.15 2.25 5.75 2.85 6.5 2.85Z" />
</svg>
