<svg
   fill="none"
   version="1.1"
   id="svg865"
   width="15"
   height="15">
  <defs
     id="defs869" />
  <path
     d="M 7.3762105,5.0196237e-4 C 3.2475068,0.05600751 -0.054416,3.463232 5.186e-4,7.6104759 0.0557782,11.755924 3.447579,15.073523 7.5761201,15.018345 11.704011,14.962512 15.006584,11.555288 14.951649,7.4083705 14.896389,3.2625957 11.504427,-0.05484033 7.3762105,5.0196237e-4 Z M 7.3541067,12.080468 7.3128245,12.079816 C 6.6770142,12.060878 6.2287614,11.590387 6.2468021,10.961215 6.2645176,10.342818 6.7236598,9.8938763 7.3385039,9.8938763 l 0.036894,6.53e-4 C 8.028924,9.9139563 8.472138,10.379713 8.453772,11.027006 8.435572,11.647199 7.9835784,12.080468 7.3541067,12.080468 Z M 10.028508,6.7488339 C 9.878982,6.9622038 9.550188,7.2271611 9.135903,7.5513789 L 8.679687,7.8677605 c -0.250456,0.1955754 -0.401608,0.37956 -0.45833,0.560606 -0.04469,0.1425187 -0.06664,0.1802298 -0.07054,0.4701646 l -6.5e-4,0.073626 H 6.4081926 l 0.00504,-0.1480692 C 6.4345221,8.2154864 6.4494747,7.8574756 6.7005808,7.5616637 7.0945491,7.0970496 7.9635874,6.5349743 8.000481,6.5111396 8.124978,6.4169434 8.229971,6.3096871 8.308147,6.1950845 8.490991,5.9418812 8.57193,5.7425509 8.57193,5.546649 8.57193,5.2748351 8.49164,5.0234276 8.332851,4.7996097 8.180237,4.5836277 7.8902871,4.4742492 7.4709644,4.4742492 c -0.4159096,0 -0.700659,0.1325603 -0.8709885,0.4045374 C 6.4247704,5.1584367 6.3361926,5.4521263 6.3361926,5.7521828 v 0.074606 h -1.796099 l 0.00325,-0.077871 C 4.5896644,4.6438676 4.9823328,3.8481792 5.7099715,3.3838917 6.1671633,3.088243 6.7360119,2.938378 7.399777,2.938378 c 0.868876,0 1.602366,0.2120638 2.179828,0.6303145 0.585101,0.4238012 0.881878,1.0585235 0.881878,1.8865356 0,0.4631448 -0.145625,0.8982104 -0.432975,1.2936058 z"
     id="path833"
     style="stroke-width:0.16289" />
  <g
     id="g835" />
  <g
     id="g837" />
  <g
     id="g839" />
  <g
     id="g841" />
  <g
     id="g843" />
  <g
     id="g845" />
  <g
     id="g847" />
  <g
     id="g849" />
  <g
     id="g851" />
  <g
     id="g853" />
  <g
     id="g855" />
  <g
     id="g857" />
  <g
     id="g859" />
  <g
     id="g861" />
  <g
     id="g863" />
</svg>
