<svg width="32" height="32" viewBox="0 0 32 32" fill="none" xmlns="http://www.w3.org/2000/svg">
<path d="M16 0C7.16337 0 0 7.16337 0 16C0 24.8366 7.16337 32 16 32C24.8366 32 32 24.8366 32 16C32 7.16337 24.8366 0 16 0Z" fill="#40B3E0"/>
<path d="M23.7854 9.20374L20.9276 23.6124C20.9276 23.6124 20.5279 24.6116 19.4288 24.132L12.8341 19.076L10.4361 17.917L6.39931 16.558C6.39931 16.558 5.77981 16.3382 5.71981 15.8586C5.65981 15.379 6.41931 15.1192 6.41931 15.1192L22.4663 8.82424C22.4663 8.82424 23.7853 8.24474 23.7853 9.20399" fill="white"/>
<path d="M12.3273 23.4504C12.3273 23.4504 12.1348 23.4324 11.8948 22.6729C11.6552 21.9135 10.436 17.9167 10.436 17.9167L20.1283 11.7617C20.1283 11.7617 20.6879 11.422 20.6679 11.7617C20.6679 11.7617 20.7678 11.8217 20.4679 12.1015C20.1683 12.3814 12.8542 18.956 12.8542 18.956" fill="#D2E5F1"/>
<path d="M15.3626 21.0144L12.7543 23.3926C12.7543 23.3926 12.5503 23.5474 12.3273 23.4504L12.8268 19.0329" fill="#B5CFE4"/>
</svg>
