<svg viewBox="6 6 28 28">
    <g fill-rule="nonzero">
      <path fill="#FFF" d="M30.688,7.99997456 L9.323,7.99997456 C8.97187427,7.99920108 8.63489966,8.13833161 8.38661563,8.38661563 C8.13833161,8.63489966 7.99920108,8.97187427 7.99999658,9.323 L7.99999658,30.688 C7.99999658,31.422 8.59,32.0110034 9.323,32.0110034 L20.828,32.0110034 L20.828,22.718 L17.693,22.718 L17.693,19.094 L20.817,19.094 L20.817,16.426 C20.817,13.325 22.707,11.635 25.475,11.635 C26.797,11.635 27.942,11.735 28.275,11.78 L28.275,15.025 L26.353,15.025 C24.853,15.025 24.552,15.737 24.552,16.793 L24.552,19.105 L28.142,19.105 L27.676,22.729 L24.563,22.729 L24.563,32.0110034 L30.677,32.0110034 C31.0281257,32.0117989 31.3651003,31.8726684 31.6133844,31.6243844 C31.8616684,31.3761003 32.0007989,31.0391257 32.000139,30.688 L32.000139,9.323 C32.0051146,8.97248594 31.8688875,8.63467446 31.6220472,8.3857646 C31.3752069,8.13685473 31.0385445,7.99781207 30.688,7.99997456 L30.688,7.99997456 Z"/>
    </g>
</svg>
