<svg viewBox="0 0 20 20">
    <g fill-rule="nonzero">
      <path fill="#4285F4" d="M19.094,10.215 C19.094,9.543 19.034,8.897 18.922,8.277 L10,8.277 L10,11.942 L15.098,11.942 C14.8851506,13.1134925 14.2022449,14.1468843 13.208,14.802 L13.208,17.178 L16.27,17.178 C18.06,15.528 19.094,13.1 19.094,10.215 Z"/>
      <path fill="#34A853" d="M10,19.473 C12.558,19.473 14.702,18.625 16.27,17.178 L13.208,14.801 C12.359,15.37 11.274,15.705 10,15.705 C7.532,15.705 5.444,14.039 4.699,11.8 L1.534,11.8 L1.534,14.254 C3.14161217,17.4551405 6.41786156,19.4752234 10,19.4740006 L10,19.473 Z"/>
      <path fill="#FBBC05" d="M4.699,11.8 C4.50391674,11.2198582 4.40363029,10.6120615 4.402,10 C4.402,9.375 4.509,8.768 4.699,8.2 L4.699,5.745 L1.534,5.745 C0.8706597,7.06527564 0.525457852,8.52245209 0.525999362,10 C0.525613867,11.47721 0.870811506,12.9340263 1.534,14.254 L4.699,11.8 Z"/>
      <path fill="#EA4335" d="M10,4.294 C11.39,4.294 12.64,4.772 13.621,5.711 L16.338,2.993 C14.698,1.465 12.553,0.525999445 10,0.525999445 C6.41786156,0.524776619 3.14161217,2.54485952 1.534,5.746 L4.699,8.2 C5.444,5.96 7.532,4.294 9.999,4.294 L10,4.294 Z"/>
    </g>
</svg>
