<svg width="12" height="15" viewBox="0 0 12 15" fill="none" xmlns="http://www.w3.org/2000/svg">
<path d="M4.49995 3.75C4.49995 3.55109 4.57897 3.36032 4.71962 3.21967C4.86027 3.07902 5.05104 3 5.24995 3C5.44886 3 5.63963 3.07902 5.78028 3.21967C5.92093 3.36032 5.99995 3.55109 5.99995 3.75V7.1025L6.90745 7.2L10.6124 8.8425C11.0099 9.0225 11.25 9.42 11.25 9.855V13.125C11.2275 13.74 10.74 14.2275 10.125 14.25H5.24995C4.96495 14.25 4.69495 14.1375 4.49995 13.9275L0.824951 10.7775L1.37995 10.2C1.52245 10.0425 1.72495 9.96 1.93495 9.96H2.09995L4.49995 11.25V3.75ZM5.24995 0.75C6.0456 0.75 6.80866 1.06607 7.37127 1.62868C7.93388 2.19129 8.24995 2.95435 8.24995 3.75C8.24995 4.875 7.64995 5.8275 6.74995 6.345V5.43C7.20745 5.0175 7.49995 4.4175 7.49995 3.75C7.49995 3.15326 7.2629 2.58097 6.84094 2.15901C6.41898 1.73705 5.84669 1.5 5.24995 1.5C4.65321 1.5 4.08092 1.73705 3.65896 2.15901C3.237 2.58097 2.99995 3.15326 2.99995 3.75C2.99995 4.4175 3.29245 5.0175 3.74995 5.43V6.345C2.84995 5.8275 2.24995 4.875 2.24995 3.75C2.24995 2.95435 2.56602 2.19129 3.12863 1.62868C3.69124 1.06607 4.4543 0.75 5.24995 0.75Z" fill="white"/>
</svg>
