<svg width="22" height="26" viewBox="0 0 22 26" xmlns="http://www.w3.org/2000/svg">
<path d="M19.5556 0H2.44444C1.79614 0 1.17438 0.260884 0.715961 0.725259C0.257539 1.18964 0 1.81946 0 2.47619V19.8095C0 20.4663 0.257539 21.0961 0.715961 21.5605C1.17438 22.0248 1.79614 22.2857 2.44444 22.2857H7.33333L11 26L14.6667 22.2857H19.5556C20.9 22.2857 22 21.1714 22 19.8095V2.47619C22 1.11429 20.9 0 19.5556 0ZM12.2222 19.8095H9.77778V17.3333H12.2222V19.8095ZM14.7522 10.2143L13.6522 11.3533C12.7722 12.2571 12.2222 13 12.2222 14.8571H9.77778V14.2381C9.77778 12.8762 10.3278 11.6381 11.2078 10.7343L12.7233 9.17429C13.1756 8.72857 13.4444 8.10952 13.4444 7.42857C13.4444 6.06667 12.3444 4.95238 11 4.95238C9.65556 4.95238 8.55556 6.06667 8.55556 7.42857H6.11111C6.11111 4.69238 8.29889 2.47619 11 2.47619C13.7011 2.47619 15.8889 4.69238 15.8889 7.42857C15.8889 8.5181 15.4489 9.50857 14.7522 10.2143Z" />
</svg>
