<svg width="16" height="16" viewBox="0 0 16 16" fill="none" xmlns="http://www.w3.org/2000/svg">
<path d="M9.29 15.38C8.87 15.455 8.4425 15.5 8 15.5C3.875 15.5 0.5 12.125 0.5 8C0.5 3.875 3.875 0.5 8 0.5C12.125 0.5 15.5 3.875 15.5 8C15.5 8.4425 15.455 8.87 15.38 9.29C14.7267 8.93377 13.9941 8.74804 13.25 8.75C12.305 8.75 11.4275 9.0425 10.7 9.545L8.375 8.15V4.25H7.25V8.75L9.8225 10.3325C9.12767 11.1455 8.74717 12.1805 8.75 13.25C8.75 14.0225 8.945 14.75 9.29 15.38ZM14.84 10.595L13.25 12.1925L11.66 10.6025L10.6025 11.66L12.1925 13.25L10.6025 14.84L11.66 15.905L13.25 14.3075L14.84 15.905L15.905 14.84L14.3075 13.25L15.905 11.66L14.84 10.595Z" fill="white"/>
</svg>
