<svg width="20" height="20" viewBox="0 0 20 20" fill="none" xmlns="http://www.w3.org/2000/svg">
<path d="M10 18C12.1217 18 14.1566 17.1571 15.6569 15.6569C17.1571 14.1566 18 12.1217 18 10C18 7.87827 17.1571 5.84344 15.6569 4.34315C14.1566 2.84285 12.1217 2 10 2C7.87827 2 5.84344 2.84285 4.34315 4.34315C2.84285 5.84344 2 7.87827 2 10C2 12.1217 2.84285 14.1566 4.34315 15.6569C5.84344 17.1571 7.87827 18 10 18ZM10 20C4.477 20 0 15.523 0 10C0 4.477 4.477 0 10 0C15.523 0 20 4.477 20 10C20 15.523 15.523 20 10 20ZM6.89 11.17L4.392 10.391C3.852 10.226 3.849 9.854 4.513 9.587L14.246 5.827C14.811 5.597 15.131 5.888 14.948 6.617L13.291 14.437C13.175 14.994 12.84 15.127 12.375 14.87L9.824 12.982L8.635 14.13C8.513 14.248 8.414 14.349 8.226 14.374C8.039 14.4 7.885 14.344 7.772 14.034L6.902 11.163L6.89 11.171V11.17Z" fill="white"/>
</svg>
