<svg width="14" height="17" viewBox="0 0 14 17" fill="none" xmlns="http://www.w3.org/2000/svg">
<path d="M12.2725 5.5425L13.3375 4.4775C13 4.095 12.6625 3.75 12.28 3.42L11.215 4.5C10.0525 3.555 8.59 3 7 3C5.20979 3 3.4929 3.71116 2.22703 4.97703C0.961159 6.2429 0.25 7.95979 0.25 9.75C0.25 11.5402 0.961159 13.2571 2.22703 14.523C3.4929 15.7888 5.20979 16.5 7 16.5C10.75 16.5 13.75 13.4775 13.75 9.75C13.75 8.16 13.195 6.6975 12.2725 5.5425ZM7.75 10.5H6.25V5.25H7.75V10.5ZM9.25 0.75H4.75V2.25H9.25V0.75Z" fill="white"/>
</svg>
